<?xml version="1.0" encoding="UTF-8"?>
<svg width="550px" height="550px" viewBox="0 0 550 550" version="1.1" xmlns="http://www.w3.org/2000/svg" xmlns:xlink="http://www.w3.org/1999/xlink" xmlns:sketch="http://www.bohemiancoding.com/sketch/ns">
    <title>vim-flat-logo</title>
    <description>A flat rendition of the Vim logo</description>
    <defs></defs>
    <g id="Page-1" stroke="none" stroke-width="1" fill="none" fill-rule="evenodd" sketch:type="MSPage">
        <g id="Vim-Flat-variation-copy" sketch:type="MSLayerGroup" transform="translate(17.000000, 17.000000)">
            <path d="M258.477314,-5.68434189e-14 L0,258.824716 L257.400337,516.571017 L515.87766,257.746287 L258.477314,-5.68434189e-14 L258.477314,-5.68434189e-14 Z" id="outer" stroke="#9B9B9B" stroke-width="14" sketch:type="MSShapeGroup"></path>
            <path d="M258.248811,20 L20,258.724884 L257.256118,496.455101 L495.504937,257.730204 L258.248811,20 L258.248811,20 Z" id="inner" fill="#9B9B9B" sketch:type="MSShapeGroup"></path>
            <path d="M49.3717574,36 L215.412066,36 L225.527956,46.129471 L225.527956,77.2165544 L217.505001,86.9967391 L199.36614,86.9967391 L199.36614,241.384255 L355.639359,86.9967391 L329.826375,86.9967391 L320.756937,77.2165544 L320.756937,44.3830115 L329.128725,36.6985727 L497.261968,36.6985727 L505.633741,45.0815981 L505.633741,75.8193811 L125.415439,466.328921 L82.1612442,466.328921 L69.6411286,459.090719 L69.6411286,85.5995798 L48.6741225,85.5995798 L41,77.915141 L41,45.0815981 L49.3717574,36 L49.3717574,36 Z" id="V" stroke="#000000" stroke-width="8" fill="#FFFFFF" sketch:type="MSShapeGroup"></path>
            <path d="M261.521656,263.453973 C261.233441,263.514213 260.965745,263.648241 260.744689,263.842978 L253.406676,270.153507 C253.187268,270.352908 253.023608,270.606177 252.931863,270.888295 L245.59385,291.462347 C245.372771,292.07875 245.523752,292.767474 245.982333,293.234482 L251.593755,298.853446 C251.918114,299.165535 252.352602,299.336457 252.802369,299.328897 L275.463881,299.328897 C275.913648,299.336457 276.348136,299.165535 276.672495,298.853446 L282.58607,292.8887 C282.789753,292.68431 282.938276,292.431482 283.017718,292.153912 L289.319777,270.49929 C289.494558,269.90063 289.329024,269.254182 288.888129,268.8136 L284.010508,263.929424 C283.686149,263.617335 283.251661,263.446414 282.801894,263.453973 L261.866974,263.453973 C261.752165,263.442258 261.636464,263.442258 261.521656,263.453973 L261.521656,263.453973 Z M219.997133,321.45897 C219.362119,321.595379 218.859856,322.081552 218.702189,322.712432 L215.896478,333.863914 C215.770179,334.371191 215.88322,334.908449 216.203177,335.32158 C216.523134,335.73471 217.014651,335.978062 217.53674,335.981831 L230.874659,335.981831 L197.810434,430.510094 C197.637174,431.027408 197.721571,431.596505 198.037479,432.04108 C198.353387,432.485655 198.862661,432.752029 199.407531,432.75768 L247.536265,432.75768 C248.278594,432.768234 248.942226,432.296072 249.176527,431.590664 L252.327556,421.433306 C252.486161,420.914266 252.388546,420.350622 252.064671,419.915364 C251.740797,419.480106 251.229348,419.225224 250.687295,419.228943 L239.809769,419.228943 L272.528676,323.706556 C272.701935,323.189242 272.617538,322.620145 272.30163,322.17557 C271.985723,321.730995 271.476448,321.464621 270.931579,321.45897 L220.342451,321.45897 C220.227642,321.447255 220.111942,321.447255 219.997133,321.45897 L219.997133,321.45897 Z M372.196163,322.366649 L361.181933,333.691023 L346.254128,333.691023 L335.635591,322.669209 C335.318303,322.341278 334.882944,322.154444 334.426977,322.150535 L296.398801,322.150535 C295.6836,322.152184 295.045618,322.601098 294.801704,323.274328 L291.305357,333.734246 C291.132097,334.251559 291.216494,334.820656 291.532402,335.265231 C291.84831,335.709807 292.357584,335.97618 292.902454,335.981831 L303.089343,335.981831 L271.406391,429.472747 C271.233132,429.990061 271.317529,430.559158 271.633437,431.003733 C271.949344,431.448308 272.458619,431.714682 273.003488,431.720333 L313.492056,431.720333 C314.207258,431.718683 314.845239,431.269769 315.089153,430.59654 L318.197018,421.476529 C318.370277,420.959215 318.28588,420.390118 317.969972,419.945543 C317.654065,419.500968 317.14479,419.234594 316.599921,419.228943 L309.520896,419.228943 L329.722015,355.561759 L366.282588,355.561759 L343.232593,429.51597 C343.073989,430.03501 343.171603,430.598654 343.495478,431.033912 C343.819352,431.46917 344.330801,431.724052 344.872855,431.720333 L383.936985,431.720333 C384.614996,431.715111 385.22533,431.307675 385.490917,430.682985 L388.987264,422.297762 C389.193439,421.777345 389.13139,421.188742 388.821246,420.722901 C388.511102,420.257059 387.99237,419.97332 387.433332,419.963731 L380.354307,419.963731 L400.900745,355.215977 L435.691561,355.215977 L412.296248,429.51597 C412.137644,430.03501 412.235259,430.598654 412.559133,431.033912 C412.883007,431.46917 413.394456,431.724052 413.93651,431.720333 L456.842306,431.720333 C457.546588,431.725462 458.181374,431.295976 458.439403,430.639763 L461.93575,421.519752 C462.12647,420.997193 462.050644,420.41433 461.732597,419.958136 C461.414549,419.501942 460.894268,419.229775 460.338653,419.228943 L454.998047,419.228943 L451.835191,419.228943 L477.690897,335.160598 C477.863713,334.630711 477.767007,334.049698 477.431908,333.604577 L469.403258,322.798877 C469.070635,322.376823 468.55873,322.136545 468.021985,322.150535 L437.331823,322.150535 C436.860891,322.142667 436.40773,322.330433 436.080044,322.669209 L425.411132,333.302018 L409.490537,333.302018 L399.476307,322.323426 C399.148621,321.984651 398.695461,321.796884 398.224528,321.804753 L373.491107,321.804753 C372.775763,321.881382 372.441693,322.079053 372.196163,322.366649 Z" id="path3671" stroke="#000000" stroke-width="8" fill="#FFFFFF" sketch:type="MSShapeGroup"></path>
        </g>
    </g>
</svg>
